 <svg xmlns="http://www.w3.org/2000/svg" viewBox="0 0 24 24" fill="currentColor" class="w-6 h-6">
                <path
                    d="M 12,0 C 5.373,0 0,5.373 0,12 0,18.627 5.373,24 12,24 18.627,24 24,18.627 24,12 24,5.373 18.627,0 12,0 Z m 6.09,17.65 c -0.23,0.38 -0.71,0.5 -1.09,0.27 C 14.54,16.56 10.9,16.1 7.2,17.18 c -0.47,0.1 -0.92,-0.19 -1.03,-0.66 -0.1,-0.47 0.19,-0.92 0.66,-1.03 4.14,-1.2 8.14,-0.68 10.74,1.4 0.38,0.23 0.5,0.7 0.27,1.09 z m 1.03,-2.85 c -0.28,0.46 -0.85,0.6 -1.3,0.3 -3.3,-2.03 -8.32,-2.6 -12.87,-1.43 -0.55,0.14 -1.09,-0.2 -1.23,-0.75 -0.14,-0.55 0.2,-1.09 0.75,-1.23 5.06,-1.28 10.6,-0.62 14.34,1.68 0.45,0.28 0.6,0.86 0.3,1.3 z m 0.1,-3.23 C 15.1,9.08 9.53,8.88 5.76,10.04 5.14,10.22 4.5,9.79 4.32,9.17 4.14,8.55 4.57,7.91 5.19,7.73 c 4.25,-1.28 10.36,-1.06 14.7,1.62 0.53,0.32 0.72,0.98 0.4,1.5 -0.32,0.53 -0.98,0.72 -1.5,0.4 z" />
            </svg>